<svg width="20" height="16" viewBox="0 0 20 16" fill="none" xmlns="http://www.w3.org/2000/svg">
<path d="M9.85801 5L12.4997 7.63333C12.4997 7.59167 12.4997 7.54167 12.4997 7.5C12.4997 6.83696 12.2363 6.20107 11.7674 5.73223C11.2986 5.26339 10.6627 5 9.99967 5C9.94967 5 9.90801 5 9.85801 5ZM6.27467 5.66667L7.56634 6.95833C7.52467 7.13333 7.49967 7.30833 7.49967 7.5C7.49967 8.16304 7.76307 8.79893 8.23191 9.26777C8.70075 9.73661 9.33663 10 9.99967 10C10.183 10 10.3663 9.975 10.5413 9.93333L11.833 11.225C11.2747 11.5 10.658 11.6667 9.99967 11.6667C8.89461 11.6667 7.8348 11.2277 7.0534 10.4463C6.272 9.66488 5.83301 8.60507 5.83301 7.5C5.83301 6.84167 5.99967 6.225 6.27467 5.66667ZM1.66634 1.05833L3.56634 2.95833L3.94134 3.33333C2.56634 4.41667 1.48301 5.83333 0.833008 7.5C2.27467 11.1583 5.83301 13.75 9.99967 13.75C11.2913 13.75 12.5247 13.5 13.6497 13.05L14.008 13.4L16.4413 15.8333L17.4997 14.775L2.72467 0M9.99967 3.33333C11.1047 3.33333 12.1646 3.77232 12.946 4.55372C13.7274 5.33512 14.1663 6.39493 14.1663 7.5C14.1663 8.03333 14.058 8.55 13.8663 9.01667L16.308 11.4583C17.558 10.4167 18.558 9.05 19.1663 7.5C17.7247 3.84167 14.1663 1.25 9.99967 1.25C8.83301 1.25 7.71634 1.45833 6.66634 1.83333L8.47467 3.625C8.94967 3.44167 9.45801 3.33333 9.99967 3.33333Z" fill="#9D9EA1"/>
</svg>
