<svg width="47" height="47" viewBox="0 0 47 47" fill="none" xmlns="http://www.w3.org/2000/svg">
<path d="M19.0599 33.9552V13.3302L32.8099 23.6427M23.6432 0.726074C20.6338 0.726074 17.6538 1.31883 14.8734 2.4705C12.093 3.62217 9.56671 5.3102 7.4387 7.43821C3.14099 11.7359 0.726563 17.5649 0.726562 23.6427C0.726563 29.7206 3.14099 35.5496 7.4387 39.8473C9.56671 41.9753 12.093 43.6633 14.8734 44.815C17.6538 45.9667 20.6338 46.5594 23.6432 46.5594C29.7211 46.5594 35.5501 44.145 39.8478 39.8473C44.1455 35.5496 46.5599 29.7206 46.5599 23.6427C46.5599 20.6333 45.9671 17.6533 44.8155 14.8729C43.6638 12.0925 41.9758 9.56622 39.8478 7.43821C37.7198 5.3102 35.1934 3.62217 32.4131 2.4705C29.6327 1.31883 26.6527 0.726074 23.6432 0.726074Z" fill="white"/>
</svg>
